<?xml version="1.0" encoding="UTF-8"?>
<svg xmlns="http://www.w3.org/2000/svg" xmlns:xlink="http://www.w3.org/1999/xlink" width="595.276pt" height="841.89pt" viewBox="0 0 595.276 841.89" version="1.1">
<g id="surface1">
<path style=" stroke:none;fill-rule:nonzero;fill:rgb(0%,0%,0%);fill-opacity:1;" d="M 264.199219 414.710938 C 264.199219 413.609375 263.304688 412.714844 262.203125 412.714844 C 261.105469 412.714844 260.210938 413.609375 260.210938 414.710938 C 260.210938 415.808594 261.105469 416.703125 262.203125 416.703125 C 263.304688 416.703125 264.199219 415.808594 264.199219 414.710938 Z M 264.199219 414.710938 "/>
<path style=" stroke:none;fill-rule:nonzero;fill:rgb(0%,0%,0%);fill-opacity:1;" d="M 264.199219 400.535156 C 264.199219 399.433594 263.304688 398.542969 262.203125 398.542969 C 261.105469 398.542969 260.210938 399.433594 260.210938 400.535156 C 260.210938 401.636719 261.105469 402.527344 262.203125 402.527344 C 263.304688 402.527344 264.199219 401.636719 264.199219 400.535156 Z M 264.199219 400.535156 "/>
<path style=" stroke:none;fill-rule:nonzero;fill:rgb(0%,0%,0%);fill-opacity:1;" d="M 264.199219 386.363281 C 264.199219 385.261719 263.304688 384.371094 262.203125 384.371094 C 261.105469 384.371094 260.210938 385.261719 260.210938 386.363281 C 260.210938 387.460938 261.105469 388.355469 262.203125 388.355469 C 263.304688 388.355469 264.199219 387.460938 264.199219 386.363281 Z M 264.199219 386.363281 "/>
<path style=" stroke:none;fill-rule:nonzero;fill:rgb(0%,0%,0%);fill-opacity:1;" d="M 264.199219 372.1875 C 264.199219 371.089844 263.304688 370.195312 262.203125 370.195312 C 261.105469 370.195312 260.210938 371.089844 260.210938 372.1875 C 260.210938 373.289062 261.105469 374.179688 262.203125 374.179688 C 263.304688 374.179688 264.199219 373.289062 264.199219 372.1875 Z M 264.199219 372.1875 "/>
<path style=" stroke:none;fill-rule:nonzero;fill:rgb(0%,0%,0%);fill-opacity:1;" d="M 264.199219 358.015625 C 264.199219 356.914062 263.304688 356.023438 262.203125 356.023438 C 261.105469 356.023438 260.210938 356.914062 260.210938 358.015625 C 260.210938 359.117188 261.105469 360.007812 262.203125 360.007812 C 263.304688 360.007812 264.199219 359.117188 264.199219 358.015625 Z M 264.199219 358.015625 "/>
<path style=" stroke:none;fill-rule:nonzero;fill:rgb(0%,0%,0%);fill-opacity:1;" d="M 264.199219 343.84375 C 264.199219 342.742188 263.304688 341.847656 262.203125 341.847656 C 261.105469 341.847656 260.210938 342.742188 260.210938 343.84375 C 260.210938 344.941406 261.105469 345.835938 262.203125 345.835938 C 263.304688 345.835938 264.199219 344.941406 264.199219 343.84375 Z M 264.199219 343.84375 "/>
<path style=" stroke:none;fill-rule:nonzero;fill:rgb(0%,0%,0%);fill-opacity:1;" d="M 264.199219 329.667969 C 264.199219 328.566406 263.304688 327.675781 262.203125 327.675781 C 261.105469 327.675781 260.210938 328.566406 260.210938 329.667969 C 260.210938 330.769531 261.105469 331.660156 262.203125 331.660156 C 263.304688 331.660156 264.199219 330.769531 264.199219 329.667969 Z M 264.199219 329.667969 "/>
<path style=" stroke:none;fill-rule:nonzero;fill:rgb(0%,0%,0%);fill-opacity:1;" d="M 264.199219 315.496094 C 264.199219 314.394531 263.304688 313.503906 262.203125 313.503906 C 261.105469 313.503906 260.210938 314.394531 260.210938 315.496094 C 260.210938 316.59375 261.105469 317.488281 262.203125 317.488281 C 263.304688 317.488281 264.199219 316.59375 264.199219 315.496094 Z M 264.199219 315.496094 "/>
<path style=" stroke:none;fill-rule:nonzero;fill:rgb(0%,0%,0%);fill-opacity:1;" d="M 278.371094 414.710938 C 278.371094 413.609375 277.480469 412.714844 276.378906 412.714844 C 275.277344 412.714844 274.386719 413.609375 274.386719 414.710938 C 274.386719 415.808594 275.277344 416.703125 276.378906 416.703125 C 277.480469 416.703125 278.371094 415.808594 278.371094 414.710938 Z M 278.371094 414.710938 "/>
<path style=" stroke:none;fill-rule:nonzero;fill:rgb(0%,0%,0%);fill-opacity:1;" d="M 278.371094 400.535156 C 278.371094 399.433594 277.480469 398.542969 276.378906 398.542969 C 275.277344 398.542969 274.386719 399.433594 274.386719 400.535156 C 274.386719 401.636719 275.277344 402.527344 276.378906 402.527344 C 277.480469 402.527344 278.371094 401.636719 278.371094 400.535156 Z M 278.371094 400.535156 "/>
<path style=" stroke:none;fill-rule:nonzero;fill:rgb(0%,0%,0%);fill-opacity:1;" d="M 278.371094 386.363281 C 278.371094 385.261719 277.480469 384.371094 276.378906 384.371094 C 275.277344 384.371094 274.386719 385.261719 274.386719 386.363281 C 274.386719 387.460938 275.277344 388.355469 276.378906 388.355469 C 277.480469 388.355469 278.371094 387.460938 278.371094 386.363281 Z M 278.371094 386.363281 "/>
<path style=" stroke:none;fill-rule:nonzero;fill:rgb(0%,0%,0%);fill-opacity:1;" d="M 278.371094 372.1875 C 278.371094 371.089844 277.480469 370.195312 276.378906 370.195312 C 275.277344 370.195312 274.386719 371.089844 274.386719 372.1875 C 274.386719 373.289062 275.277344 374.179688 276.378906 374.179688 C 277.480469 374.179688 278.371094 373.289062 278.371094 372.1875 Z M 278.371094 372.1875 "/>
<path style=" stroke:none;fill-rule:nonzero;fill:rgb(0%,0%,0%);fill-opacity:1;" d="M 278.371094 358.015625 C 278.371094 356.914062 277.480469 356.023438 276.378906 356.023438 C 275.277344 356.023438 274.386719 356.914062 274.386719 358.015625 C 274.386719 359.117188 275.277344 360.007812 276.378906 360.007812 C 277.480469 360.007812 278.371094 359.117188 278.371094 358.015625 Z M 278.371094 358.015625 "/>
<path style=" stroke:none;fill-rule:nonzero;fill:rgb(0%,0%,0%);fill-opacity:1;" d="M 278.371094 343.84375 C 278.371094 342.742188 277.480469 341.847656 276.378906 341.847656 C 275.277344 341.847656 274.386719 342.742188 274.386719 343.84375 C 274.386719 344.941406 275.277344 345.835938 276.378906 345.835938 C 277.480469 345.835938 278.371094 344.941406 278.371094 343.84375 Z M 278.371094 343.84375 "/>
<path style=" stroke:none;fill-rule:nonzero;fill:rgb(0%,0%,0%);fill-opacity:1;" d="M 278.371094 329.667969 C 278.371094 328.566406 277.480469 327.675781 276.378906 327.675781 C 275.277344 327.675781 274.386719 328.566406 274.386719 329.667969 C 274.386719 330.769531 275.277344 331.660156 276.378906 331.660156 C 277.480469 331.660156 278.371094 330.769531 278.371094 329.667969 Z M 278.371094 329.667969 "/>
<path style=" stroke:none;fill-rule:nonzero;fill:rgb(0%,0%,0%);fill-opacity:1;" d="M 278.371094 315.496094 C 278.371094 314.394531 277.480469 313.503906 276.378906 313.503906 C 275.277344 313.503906 274.386719 314.394531 274.386719 315.496094 C 274.386719 316.59375 275.277344 317.488281 276.378906 317.488281 C 277.480469 317.488281 278.371094 316.59375 278.371094 315.496094 Z M 278.371094 315.496094 "/>
<path style=" stroke:none;fill-rule:nonzero;fill:rgb(0%,0%,0%);fill-opacity:1;" d="M 292.542969 414.710938 C 292.542969 413.609375 291.652344 412.714844 290.550781 412.714844 C 289.453125 412.714844 288.558594 413.609375 288.558594 414.710938 C 288.558594 415.808594 289.453125 416.703125 290.550781 416.703125 C 291.652344 416.703125 292.542969 415.808594 292.542969 414.710938 Z M 292.542969 414.710938 "/>
<path style=" stroke:none;fill-rule:nonzero;fill:rgb(0%,0%,0%);fill-opacity:1;" d="M 292.542969 400.535156 C 292.542969 399.433594 291.652344 398.542969 290.550781 398.542969 C 289.453125 398.542969 288.558594 399.433594 288.558594 400.535156 C 288.558594 401.636719 289.453125 402.527344 290.550781 402.527344 C 291.652344 402.527344 292.542969 401.636719 292.542969 400.535156 Z M 292.542969 400.535156 "/>
<path style=" stroke:none;fill-rule:nonzero;fill:rgb(0%,0%,0%);fill-opacity:1;" d="M 292.542969 386.363281 C 292.542969 385.261719 291.652344 384.371094 290.550781 384.371094 C 289.453125 384.371094 288.558594 385.261719 288.558594 386.363281 C 288.558594 387.460938 289.453125 388.355469 290.550781 388.355469 C 291.652344 388.355469 292.542969 387.460938 292.542969 386.363281 Z M 292.542969 386.363281 "/>
<path style=" stroke:none;fill-rule:nonzero;fill:rgb(0%,0%,0%);fill-opacity:1;" d="M 292.542969 372.1875 C 292.542969 371.089844 291.652344 370.195312 290.550781 370.195312 C 289.453125 370.195312 288.558594 371.089844 288.558594 372.1875 C 288.558594 373.289062 289.453125 374.179688 290.550781 374.179688 C 291.652344 374.179688 292.542969 373.289062 292.542969 372.1875 Z M 292.542969 372.1875 "/>
<path style=" stroke:none;fill-rule:nonzero;fill:rgb(0%,0%,0%);fill-opacity:1;" d="M 292.542969 358.015625 C 292.542969 356.914062 291.652344 356.023438 290.550781 356.023438 C 289.453125 356.023438 288.558594 356.914062 288.558594 358.015625 C 288.558594 359.117188 289.453125 360.007812 290.550781 360.007812 C 291.652344 360.007812 292.542969 359.117188 292.542969 358.015625 Z M 292.542969 358.015625 "/>
<path style=" stroke:none;fill-rule:nonzero;fill:rgb(0%,0%,0%);fill-opacity:1;" d="M 292.542969 343.84375 C 292.542969 342.742188 291.652344 341.847656 290.550781 341.847656 C 289.453125 341.847656 288.558594 342.742188 288.558594 343.84375 C 288.558594 344.941406 289.453125 345.835938 290.550781 345.835938 C 291.652344 345.835938 292.542969 344.941406 292.542969 343.84375 Z M 292.542969 343.84375 "/>
<path style=" stroke:none;fill-rule:nonzero;fill:rgb(0%,0%,0%);fill-opacity:1;" d="M 292.542969 329.667969 C 292.542969 328.566406 291.652344 327.675781 290.550781 327.675781 C 289.453125 327.675781 288.558594 328.566406 288.558594 329.667969 C 288.558594 330.769531 289.453125 331.660156 290.550781 331.660156 C 291.652344 331.660156 292.542969 330.769531 292.542969 329.667969 Z M 292.542969 329.667969 "/>
<path style=" stroke:none;fill-rule:nonzero;fill:rgb(0%,0%,0%);fill-opacity:1;" d="M 292.542969 315.496094 C 292.542969 314.394531 291.652344 313.503906 290.550781 313.503906 C 289.453125 313.503906 288.558594 314.394531 288.558594 315.496094 C 288.558594 316.59375 289.453125 317.488281 290.550781 317.488281 C 291.652344 317.488281 292.542969 316.59375 292.542969 315.496094 Z M 292.542969 315.496094 "/>
<path style=" stroke:none;fill-rule:nonzero;fill:rgb(0%,0%,0%);fill-opacity:1;" d="M 306.71875 414.710938 C 306.71875 413.609375 305.824219 412.714844 304.726562 412.714844 C 303.625 412.714844 302.734375 413.609375 302.734375 414.710938 C 302.734375 415.808594 303.625 416.703125 304.726562 416.703125 C 305.824219 416.703125 306.71875 415.808594 306.71875 414.710938 Z M 306.71875 414.710938 "/>
<path style=" stroke:none;fill-rule:nonzero;fill:rgb(0%,0%,0%);fill-opacity:1;" d="M 306.71875 400.535156 C 306.71875 399.433594 305.824219 398.542969 304.726562 398.542969 C 303.625 398.542969 302.734375 399.433594 302.734375 400.535156 C 302.734375 401.636719 303.625 402.527344 304.726562 402.527344 C 305.824219 402.527344 306.71875 401.636719 306.71875 400.535156 Z M 306.71875 400.535156 "/>
<path style=" stroke:none;fill-rule:nonzero;fill:rgb(0%,0%,0%);fill-opacity:1;" d="M 306.71875 386.363281 C 306.71875 385.261719 305.824219 384.371094 304.726562 384.371094 C 303.625 384.371094 302.734375 385.261719 302.734375 386.363281 C 302.734375 387.460938 303.625 388.355469 304.726562 388.355469 C 305.824219 388.355469 306.71875 387.460938 306.71875 386.363281 Z M 306.71875 386.363281 "/>
<path style=" stroke:none;fill-rule:nonzero;fill:rgb(0%,0%,0%);fill-opacity:1;" d="M 306.71875 372.1875 C 306.71875 371.089844 305.824219 370.195312 304.726562 370.195312 C 303.625 370.195312 302.734375 371.089844 302.734375 372.1875 C 302.734375 373.289062 303.625 374.179688 304.726562 374.179688 C 305.824219 374.179688 306.71875 373.289062 306.71875 372.1875 Z M 306.71875 372.1875 "/>
<path style=" stroke:none;fill-rule:nonzero;fill:rgb(0%,0%,0%);fill-opacity:1;" d="M 306.71875 358.015625 C 306.71875 356.914062 305.824219 356.023438 304.726562 356.023438 C 303.625 356.023438 302.734375 356.914062 302.734375 358.015625 C 302.734375 359.117188 303.625 360.007812 304.726562 360.007812 C 305.824219 360.007812 306.71875 359.117188 306.71875 358.015625 Z M 306.71875 358.015625 "/>
<path style=" stroke:none;fill-rule:nonzero;fill:rgb(0%,0%,0%);fill-opacity:1;" d="M 306.71875 343.84375 C 306.71875 342.742188 305.824219 341.847656 304.726562 341.847656 C 303.625 341.847656 302.734375 342.742188 302.734375 343.84375 C 302.734375 344.941406 303.625 345.835938 304.726562 345.835938 C 305.824219 345.835938 306.71875 344.941406 306.71875 343.84375 Z M 306.71875 343.84375 "/>
<path style=" stroke:none;fill-rule:nonzero;fill:rgb(0%,0%,0%);fill-opacity:1;" d="M 306.71875 329.667969 C 306.71875 328.566406 305.824219 327.675781 304.726562 327.675781 C 303.625 327.675781 302.734375 328.566406 302.734375 329.667969 C 302.734375 330.769531 303.625 331.660156 304.726562 331.660156 C 305.824219 331.660156 306.71875 330.769531 306.71875 329.667969 Z M 306.71875 329.667969 "/>
<path style=" stroke:none;fill-rule:nonzero;fill:rgb(0%,0%,0%);fill-opacity:1;" d="M 306.71875 315.496094 C 306.71875 314.394531 305.824219 313.503906 304.726562 313.503906 C 303.625 313.503906 302.734375 314.394531 302.734375 315.496094 C 302.734375 316.59375 303.625 317.488281 304.726562 317.488281 C 305.824219 317.488281 306.71875 316.59375 306.71875 315.496094 Z M 306.71875 315.496094 "/>
<path style=" stroke:none;fill-rule:nonzero;fill:rgb(0%,0%,0%);fill-opacity:1;" d="M 320.890625 414.710938 C 320.890625 413.609375 320 412.714844 318.898438 412.714844 C 317.796875 412.714844 316.90625 413.609375 316.90625 414.710938 C 316.90625 415.808594 317.796875 416.703125 318.898438 416.703125 C 320 416.703125 320.890625 415.808594 320.890625 414.710938 Z M 320.890625 414.710938 "/>
<path style=" stroke:none;fill-rule:nonzero;fill:rgb(0%,0%,0%);fill-opacity:1;" d="M 320.890625 400.535156 C 320.890625 399.433594 320 398.542969 318.898438 398.542969 C 317.796875 398.542969 316.90625 399.433594 316.90625 400.535156 C 316.90625 401.636719 317.796875 402.527344 318.898438 402.527344 C 320 402.527344 320.890625 401.636719 320.890625 400.535156 Z M 320.890625 400.535156 "/>
<path style=" stroke:none;fill-rule:nonzero;fill:rgb(0%,0%,0%);fill-opacity:1;" d="M 320.890625 386.363281 C 320.890625 385.261719 320 384.371094 318.898438 384.371094 C 317.796875 384.371094 316.90625 385.261719 316.90625 386.363281 C 316.90625 387.460938 317.796875 388.355469 318.898438 388.355469 C 320 388.355469 320.890625 387.460938 320.890625 386.363281 Z M 320.890625 386.363281 "/>
<path style=" stroke:none;fill-rule:nonzero;fill:rgb(0%,0%,0%);fill-opacity:1;" d="M 320.890625 372.1875 C 320.890625 371.089844 320 370.195312 318.898438 370.195312 C 317.796875 370.195312 316.90625 371.089844 316.90625 372.1875 C 316.90625 373.289062 317.796875 374.179688 318.898438 374.179688 C 320 374.179688 320.890625 373.289062 320.890625 372.1875 Z M 320.890625 372.1875 "/>
<path style=" stroke:none;fill-rule:nonzero;fill:rgb(0%,0%,0%);fill-opacity:1;" d="M 320.890625 358.015625 C 320.890625 356.914062 320 356.023438 318.898438 356.023438 C 317.796875 356.023438 316.90625 356.914062 316.90625 358.015625 C 316.90625 359.117188 317.796875 360.007812 318.898438 360.007812 C 320 360.007812 320.890625 359.117188 320.890625 358.015625 Z M 320.890625 358.015625 "/>
<path style=" stroke:none;fill-rule:nonzero;fill:rgb(0%,0%,0%);fill-opacity:1;" d="M 320.890625 343.84375 C 320.890625 342.742188 320 341.847656 318.898438 341.847656 C 317.796875 341.847656 316.90625 342.742188 316.90625 343.84375 C 316.90625 344.941406 317.796875 345.835938 318.898438 345.835938 C 320 345.835938 320.890625 344.941406 320.890625 343.84375 Z M 320.890625 343.84375 "/>
<path style=" stroke:none;fill-rule:nonzero;fill:rgb(0%,0%,0%);fill-opacity:1;" d="M 320.890625 329.667969 C 320.890625 328.566406 320 327.675781 318.898438 327.675781 C 317.796875 327.675781 316.90625 328.566406 316.90625 329.667969 C 316.90625 330.769531 317.796875 331.660156 318.898438 331.660156 C 320 331.660156 320.890625 330.769531 320.890625 329.667969 Z M 320.890625 329.667969 "/>
<path style=" stroke:none;fill-rule:nonzero;fill:rgb(0%,0%,0%);fill-opacity:1;" d="M 320.890625 315.496094 C 320.890625 314.394531 320 313.503906 318.898438 313.503906 C 317.796875 313.503906 316.90625 314.394531 316.90625 315.496094 C 316.90625 316.59375 317.796875 317.488281 318.898438 317.488281 C 320 317.488281 320.890625 316.59375 320.890625 315.496094 Z M 320.890625 315.496094 "/>
<path style=" stroke:none;fill-rule:nonzero;fill:rgb(0%,0%,0%);fill-opacity:1;" d="M 335.066406 414.710938 C 335.066406 413.609375 334.171875 412.714844 333.070312 412.714844 C 331.972656 412.714844 331.078125 413.609375 331.078125 414.710938 C 331.078125 415.808594 331.972656 416.703125 333.070312 416.703125 C 334.171875 416.703125 335.066406 415.808594 335.066406 414.710938 Z M 335.066406 414.710938 "/>
<path style=" stroke:none;fill-rule:nonzero;fill:rgb(0%,0%,0%);fill-opacity:1;" d="M 335.066406 400.535156 C 335.066406 399.433594 334.171875 398.542969 333.070312 398.542969 C 331.972656 398.542969 331.078125 399.433594 331.078125 400.535156 C 331.078125 401.636719 331.972656 402.527344 333.070312 402.527344 C 334.171875 402.527344 335.066406 401.636719 335.066406 400.535156 Z M 335.066406 400.535156 "/>
<path style=" stroke:none;fill-rule:nonzero;fill:rgb(0%,0%,0%);fill-opacity:1;" d="M 335.066406 386.363281 C 335.066406 385.261719 334.171875 384.371094 333.070312 384.371094 C 331.972656 384.371094 331.078125 385.261719 331.078125 386.363281 C 331.078125 387.460938 331.972656 388.355469 333.070312 388.355469 C 334.171875 388.355469 335.066406 387.460938 335.066406 386.363281 Z M 335.066406 386.363281 "/>
<path style=" stroke:none;fill-rule:nonzero;fill:rgb(0%,0%,0%);fill-opacity:1;" d="M 335.066406 372.1875 C 335.066406 371.089844 334.171875 370.195312 333.070312 370.195312 C 331.972656 370.195312 331.078125 371.089844 331.078125 372.1875 C 331.078125 373.289062 331.972656 374.179688 333.070312 374.179688 C 334.171875 374.179688 335.066406 373.289062 335.066406 372.1875 Z M 335.066406 372.1875 "/>
<path style=" stroke:none;fill-rule:nonzero;fill:rgb(0%,0%,0%);fill-opacity:1;" d="M 335.066406 358.015625 C 335.066406 356.914062 334.171875 356.023438 333.070312 356.023438 C 331.972656 356.023438 331.078125 356.914062 331.078125 358.015625 C 331.078125 359.117188 331.972656 360.007812 333.070312 360.007812 C 334.171875 360.007812 335.066406 359.117188 335.066406 358.015625 Z M 335.066406 358.015625 "/>
<path style=" stroke:none;fill-rule:nonzero;fill:rgb(0%,0%,0%);fill-opacity:1;" d="M 335.066406 343.84375 C 335.066406 342.742188 334.171875 341.847656 333.070312 341.847656 C 331.972656 341.847656 331.078125 342.742188 331.078125 343.84375 C 331.078125 344.941406 331.972656 345.835938 333.070312 345.835938 C 334.171875 345.835938 335.066406 344.941406 335.066406 343.84375 Z M 335.066406 343.84375 "/>
<path style=" stroke:none;fill-rule:nonzero;fill:rgb(0%,0%,0%);fill-opacity:1;" d="M 335.066406 329.667969 C 335.066406 328.566406 334.171875 327.675781 333.070312 327.675781 C 331.972656 327.675781 331.078125 328.566406 331.078125 329.667969 C 331.078125 330.769531 331.972656 331.660156 333.070312 331.660156 C 334.171875 331.660156 335.066406 330.769531 335.066406 329.667969 Z M 335.066406 329.667969 "/>
<path style=" stroke:none;fill-rule:nonzero;fill:rgb(0%,0%,0%);fill-opacity:1;" d="M 335.066406 315.496094 C 335.066406 314.394531 334.171875 313.503906 333.070312 313.503906 C 331.972656 313.503906 331.078125 314.394531 331.078125 315.496094 C 331.078125 316.59375 331.972656 317.488281 333.070312 317.488281 C 334.171875 317.488281 335.066406 316.59375 335.066406 315.496094 Z M 335.066406 315.496094 "/>
<path style="fill:none;stroke-width:1.59404;stroke-linecap:butt;stroke-linejoin:miter;stroke:rgb(100%,87.841797%,41.569519%);stroke-opacity:1;stroke-miterlimit:10;" d="M -7.087812 106.298844 L -7.087812 77.955094 L 21.259844 77.955094 L 21.259844 106.298844 Z M -7.087812 106.298844 " transform="matrix(1,0,0,-1,262.205,414.709)"/>
<path style="fill:none;stroke-width:1.59404;stroke-linecap:butt;stroke-linejoin:miter;stroke:rgb(42.74292%,75.292969%,40.391541%);stroke-opacity:1;stroke-miterlimit:10;" d="M -7.087812 -7.087875 L -7.087812 21.259781 L 77.955156 21.259781 L 77.955156 -7.087875 Z M -7.087812 -7.087875 " transform="matrix(1,0,0,-1,262.205,414.709)"/>
<path style="fill:none;stroke-width:1.59404;stroke-linecap:butt;stroke-linejoin:miter;stroke:rgb(0%,36.471558%,64.312744%);stroke-opacity:1;stroke-miterlimit:10;" d="M 35.431719 -7.087875 L 35.431719 49.607438 L 63.779375 49.607438 L 63.779375 -7.087875 Z M 35.431719 -7.087875 " transform="matrix(1,0,0,-1,262.205,414.709)"/>
<path style="fill:none;stroke-width:1.59404;stroke-linecap:butt;stroke-linejoin:miter;stroke:rgb(0%,75.292969%,95.292664%);stroke-opacity:1;stroke-miterlimit:10;" d="M -7.087812 92.126969 L -7.087812 35.431656 L 77.955156 35.431656 L 77.955156 92.126969 Z M -7.087812 92.126969 " transform="matrix(1,0,0,-1,262.205,414.709)"/>
<path style="fill:none;stroke-width:0.3985;stroke-linecap:butt;stroke-linejoin:miter;stroke:rgb(0%,0%,0%);stroke-opacity:1;stroke-miterlimit:10;" d="M -14.17375 -14.173812 L -14.17375 113.388688 L 85.041094 113.388688 L 85.041094 -14.173812 Z M -14.17375 -14.173812 " transform="matrix(1,0,0,-1,262.205,414.709)"/>
</g>
</svg>
