<?xml version="1.0" encoding="UTF-8"?>
<svg xmlns="http://www.w3.org/2000/svg" xmlns:xlink="http://www.w3.org/1999/xlink" width="595.276pt" height="841.89pt" viewBox="0 0 595.276 841.89" version="1.1">
<g id="surface1">
<path style="fill:none;stroke-width:0.3985;stroke-linecap:butt;stroke-linejoin:miter;stroke:rgb(0%,0%,0%);stroke-opacity:1;stroke-miterlimit:10;" d="M 42.522156 0.0014375 C 42.522156 23.481906 23.483094 42.520969 -0.00128125 42.520969 C -23.48175 42.520969 -42.520812 23.481906 -42.520812 0.0014375 C -42.520812 -23.482937 -23.48175 -42.522 -0.00128125 -42.522 C 23.483094 -42.522 42.522156 -23.482937 42.522156 0.0014375 Z M 42.522156 0.0014375 " transform="matrix(1,0,0,-1,297.638,365.103)"/>
<path style=" stroke:none;fill-rule:nonzero;fill:rgb(100%,50%,50%);fill-opacity:1;" d="M 306.140625 365.101562 C 306.140625 360.40625 302.335938 356.597656 297.636719 356.597656 C 292.941406 356.597656 289.132812 360.40625 289.132812 365.101562 C 289.132812 369.800781 292.941406 373.605469 297.636719 373.605469 C 302.335938 373.605469 306.140625 369.800781 306.140625 365.101562 Z M 306.140625 365.101562 "/>
</g>
</svg>
